<!DOCTYPE svg PUBLIC "-//W3C//DTD SVG 1.1//EN" "http://www.w3.org/Graphics/SVG/1.1/DTD/svg11.dtd">
<!-- Uploaded to: SVG Repo, www.svgrepo.com, Transformed by: SVG Repo Mixer Tools -->
<svg fill="#ffffff" height="800px" width="800px" version="1.1" id="Layer_1" xmlns="http://www.w3.org/2000/svg" xmlns:xlink="http://www.w3.org/1999/xlink" viewBox="0 0 511.997 511.997" xml:space="preserve" stroke="#ffffff">
<g id="SVGRepo_bgCarrier" stroke-width="0"/>
<g id="SVGRepo_tracerCarrier" stroke-linecap="round" stroke-linejoin="round"/>
<g id="SVGRepo_iconCarrier"> <g> <g> <path d="M282.469,401.569c-4.13-0.773-8.109,1.957-8.881,6.091l-4.914,26.365c-0.771,4.134,1.956,8.11,6.091,8.881 c0.471,0.088,7.377,1.15,8.881-6.091l4.914-26.365C289.329,406.315,286.603,402.339,282.469,401.569z"/> </g> </g> <g> <g> <path d="M441.296,12.989c-1.957-5.059-5.768-9.053-10.73-11.246c-4.96-2.192-10.479-2.32-15.537-0.362l-77,29.804 c-4.306,1.666-7.95,4.785-10.258,8.784l-49.86,86.361c2.59-16.12,2.018-35.554-1.756-58.047 c-1.794-10.195-5.867-16.436-12.109-18.55c-8.254-2.799-15.32,3.398-16.047,4.065c-23.252,20.985-69.053,20.477-69.509,20.465 c-0.053-0.002-0.099-0.003-0.158-0.001c-7.714,0-15.177,1.618-22.18,4.81c-3.828,1.744-5.515,6.259-3.771,10.087 c1.743,3.827,6.257,5.517,10.087,3.771c4.994-2.275,10.316-3.433,15.821-3.439c2.983,0.045,52.707,0.711,79.965-24.434 c1.974-1.82,2.229,2.043,2.892,5.805c2.749,16.385,4.913,39.018,0.806,57.879h-6.748c-4.206,0-7.615,3.408-7.615,7.615 s3.408,7.615,7.615,7.615h7.699c17.287,2.744,30.261,17.882,30.261,35.426v1.381c-2.795-1.098-5.715-1.962-8.739-2.568 c-4.123-0.823-8.137,1.847-8.961,5.971c-0.825,4.124,1.941,7.758,5.971,8.961c33.196,9.909,29.437,37.898,29.359,38.869H92.664 c-0.078-0.973-0.125-1.949-0.125-2.925c0-17.243,12.268-32.333,29.169-35.879c4.116-0.864,6.752-4.9,5.889-9.016 c-0.863-4.117-4.898-6.753-9.016-5.889c-2.881,0.604-5.663,1.451-8.336,2.507v-1.413c0-17.544,12.972-32.682,30.262-35.426h5.605 c4.206,0,7.615-3.408,7.615-7.615s-3.408-7.615-7.615-7.615h-6.176c-0.054,0-0.444-8.183,2.39-14.471 c1.727-3.835-0.434-8.331-4.356-9.848c-3.924-1.517-8.08,0.541-9.848,4.356c-4.873,10.512-3.508,22.589-3.356,24.239 c-33.498,17.099-29.531,53.961-29.116,56.586c-22.151,17.763-18.191,43.841-17.917,46c-1.537,1.084-2.932,2.394-4.135,3.914 c-3.775,4.768-5.138,10.898-3.742,16.818l8.58,36.375c1.99,8.437,9.109,14.478,17.616,15.17l36.122,184.735 c2.21,11.232,12.12,19.384,23.567,19.384h93.936c11.567,0,21.497-8.252,23.613-19.62l5.481-29.405 c0.771-4.133-1.956-8.11-6.091-8.881c-4.126-0.771-8.109,1.956-8.881,6.091l-5.481,29.407c-0.775,4.161-4.408,7.179-8.641,7.179 h-93.936c-4.188,0-7.815-2.983-8.622-7.086l-26.594-136.003h163.122l-5.043,27.058c-0.771,4.134,1.956,8.11,6.091,8.881 c0.472,0.088,7.471,0.877,8.881-6.091l14.104-75.678c8.387-0.797,15.379-6.795,17.347-15.143l8.58-36.375 c1.397-5.921,0.031-12.052-3.743-16.818c-1.201-1.517-2.593-2.827-4.127-3.91c0.274-2.16,0.416-4.337,0.416-6.52 c0-15.617-7.057-29.925-18.379-39.547c0.407-2.603,2.539-20.501-2.914-28.669l54.501-94.398l70.326-27.221 c5.058-1.958,9.051-5.768,11.243-10.729C443.125,23.563,443.254,18.045,441.296,12.989z M286.486,338.452H117.547l-5.965-30.502 h180.588L286.486,338.452z M314.356,247.241L314.356,247.241c1.399,0,2.7,0.629,3.57,1.728c0.868,1.096,1.182,2.507,0.861,3.87 l-8.58,36.375c-0.486,2.064-2.309,3.507-4.43,3.507H97.69c-2.122,0-3.944-1.443-4.431-3.507l-8.58-36.375 c-0.321-1.364-0.008-2.774,0.86-3.87c0.869-1.099,2.171-1.728,3.571-1.728H314.356z M427.002,22.367 c-0.547,1.241-1.546,2.193-2.811,2.683l-72.829,28.19c-1.62,0.626-2.978,1.79-3.846,3.294l-51.657,89.473 c-2.278-2.631-4.827-5.024-7.594-7.151l52.695-91.272c0.577-0.999,1.487-1.78,2.564-2.196l77.004-29.805 c1.263-0.488,2.643-0.457,3.883,0.091c1.241,0.548,2.192,1.545,2.682,2.811C427.582,19.749,427.55,21.128,427.002,22.367z"/> </g> </g> <g> <g> <path d="M202.747,369.249c-25.846,0-46.873,21.027-46.873,46.873c0,25.845,21.027,46.872,46.873,46.872 c25.846,0,46.873-21.027,46.873-46.872C249.62,390.275,228.593,369.249,202.747,369.249z M202.747,447.764 c-17.449,0-31.643-14.195-31.643-31.643c0-17.449,14.195-31.643,31.644-31.643c17.449,0,31.643,14.196,31.643,31.643 C234.39,433.569,220.196,447.764,202.747,447.764z"/> </g> </g> <g> <g> <circle cx="186.882" cy="206.804" r="7.433"/> </g> </g> <g> <g> <circle cx="236.702" cy="172.314" r="7.433"/> </g> </g> <g> <g> <circle cx="194.314" cy="123.184" r="7.433"/> </g> </g> </g>
</svg>