<!DOCTYPE svg PUBLIC "-//W3C//DTD SVG 1.1//EN" "http://www.w3.org/Graphics/SVG/1.1/DTD/svg11.dtd">
<!-- Uploaded to: SVG Repo, www.svgrepo.com, Transformed by: SVG Repo Mixer Tools -->
<svg fill="#ffffff" height="800px" width="800px" version="1.1" id="Layer_1" xmlns="http://www.w3.org/2000/svg" xmlns:xlink="http://www.w3.org/1999/xlink" viewBox="0 0 512 512" xml:space="preserve" stroke="#ffffff">
<g id="SVGRepo_bgCarrier" stroke-width="0"/>
<g id="SVGRepo_tracerCarrier" stroke-linecap="round" stroke-linejoin="round"/>
<g id="SVGRepo_iconCarrier"> <g> <g> <path d="M448.55,291.421c-2.76-3.169-7.563-3.5-10.728-0.741l-7.984,6.952c-3.167,2.759-3.453,7.523-0.741,10.728 c3.827,4.524,9.288,1.996,10.728,0.741l7.984-6.952C450.976,299.39,451.307,294.587,448.55,291.421z"/> </g> </g> <g> <g> <path d="M511.201,218.185c-2.963-15.164-13.88-27.703-28.493-32.722l-193.78-66.547l-29.515-51.12 c-11.887-20.595-34.046-33.389-57.828-33.389c-23.78,0-45.939,12.793-57.83,33.394L51.918,227.267 c-0.506,0.891-12.373,22.098-12.373,47.78v20.021L7.062,351.331C2.44,358.389,0,366.591,0,375.067 c0,23.925,19.463,43.389,43.389,43.389c0.021,0,0.046,0,0.07,0h134.026c1.914,0.794,3.836,1.42,5.71,1.898l3.87,19.824 c1.153,8.358,4.698,16.147,10.262,22.537c8.567,9.84,20.627,14.879,32.751,14.878c10.107-0.001,20.26-3.504,28.464-10.647 c0.006-0.005,0.011-0.009,0.016-0.014c0.013-0.011,0.024-0.021,0.036-0.031l55.273-48.128l45.848-0.317 c15.451,0,29.849-8.313,37.576-21.695c7.725-13.381,7.725-30.007,0-43.388l-2.781-4.817l27.187-23.673 c3.167-2.758,3.499-7.56,0.741-10.728c-2.76-3.168-7.563-3.5-10.728-0.741l-24.948,21.723l-40.745-70.572 c0.173-1.444,3.515-38.622-13.751-70.59l-31.757-55.003l177.26,60.873c9.491,3.26,16.582,11.403,18.506,21.254 c1.922,9.849-1.585,20.062-9.152,26.652l-30.743,26.768c-3.167,2.758-3.499,7.56-0.741,10.728 c1.504,1.727,3.615,2.611,5.738,2.611c1.771,0,3.551-0.614,4.99-1.87l30.743-26.768 C508.763,249.075,514.163,233.351,511.201,218.185z M43.459,403.249c-0.022-0.002-0.049-0.002-0.07-0.001 c-15.539,0-28.181-12.641-28.181-28.181c0-5.561,1.613-10.935,4.666-15.54c0.086-0.131,21.13-36.571,21.13-36.571 c4.428,15.25,18.481,26.448,35.122,26.528c2.302,0.078,16.256,0.202,26.449-9.36c6.958-6.527,10.487-15.745,10.487-27.396v-26.154 c0-11.883,9.667-21.55,21.55-21.55c11.882,0,21.548,9.666,21.55,21.547v98.305c0,7.457,1.589,13.499,4.155,18.372H43.459z M248.609,455.431c-0.018,0.015-0.036,0.03-0.053,0.046c-11.72,10.203-29.555,8.97-39.759-2.749 c-3.652-4.192-5.964-9.304-6.688-14.784c-0.021-0.154-0.046-0.308-0.075-0.46l-3.189-16.334c3.15-0.513,6.163-1.431,8.993-2.693 h83.234L248.609,455.431z M319.079,201.55c0.118,0.208,11.83,21.065,12.003,46.897v11.72c0,11.883-9.667,21.55-21.55,21.55 c-11.883,0-21.55-9.667-21.55-21.55v-14.878c0-0.102,0.718-35.693-36.758-35.693c-20.268,0-36.758,16.49-36.758,36.757v56.646 c0,4.2,3.404,7.604,7.604,7.604c4.2,0,7.604-3.404,7.604-7.604v-56.646c0-11.883,9.667-21.549,21.55-21.549 c22.521,0,21.493,19.962,21.55,20.704v14.659c0,20.268,16.49,36.758,36.758,36.758c11.91,0,22.51-5.698,29.232-14.506 l45.358,78.559c5.017,8.69,5.017,19.49,0,28.181c-5.018,8.691-14.37,14.09-24.405,14.09H224.733 c3.136-5.41,4.942-11.682,4.942-18.372v-58.051c0-4.201-3.404-7.604-7.604-7.604s-7.604,3.404-7.604,7.604v58.051 c0,11.883-9.666,21.55-21.549,21.55c-0.055,0-5.737-0.122-11.176-2.842c-6.981-3.49-10.373-9.609-10.373-18.708v-98.306 c-0.003-20.266-16.493-36.754-36.758-36.754c-20.268,0-36.758,16.49-36.758,36.758v26.154c0,7.234-1.887,12.695-5.608,16.234 c-6.026,5.732-15.418,5.332-15.458,5.331c-0.161-0.011-0.322-0.016-0.485-0.016c-11.883,0-21.55-9.666-21.55-21.549v-37.681 c0-21.553,10.294-40.101,10.368-40.232L156.93,75.398c9.182-15.904,26.293-25.783,44.656-25.783 c18.366,0,35.477,9.879,44.658,25.784L319.079,201.55z"/> </g> </g> <g> <g> <path d="M418.03,216.799c-1.419-1.419-3.377-2.231-5.384-2.231c-1.998,0-3.955,0.811-5.373,2.231 c-1.419,1.409-2.231,3.376-2.231,5.374c0,2.007,0.811,3.964,2.231,5.384c1.419,1.409,3.375,2.22,5.373,2.22 c2.006,0,3.964-0.811,5.384-2.22c1.409-1.419,2.22-3.376,2.22-5.384C420.251,220.175,419.44,218.218,418.03,216.799z"/> </g> </g> <g> <g> <path d="M464.668,224.403c-1.419-1.419-3.377-2.231-5.384-2.231c-1.998,0-3.955,0.811-5.374,2.231 c-1.419,1.409-2.231,3.376-2.231,5.374c0,2.007,0.811,3.964,2.231,5.384c1.419,1.409,3.375,2.22,5.374,2.22 c2.006,0,3.964-0.811,5.384-2.22c1.409-1.419,2.22-3.376,2.22-5.384C466.889,227.779,466.079,225.822,464.668,224.403z"/> </g> </g> <g> <g> <path d="M433.238,258.238c-1.419-1.419-3.377-2.231-5.384-2.231c-1.998,0-3.955,0.811-5.374,2.231 c-1.419,1.409-2.231,3.376-2.231,5.374c0,2.008,0.811,3.964,2.231,5.384c1.419,1.409,3.375,2.22,5.374,2.22 c2.006,0,3.964-0.812,5.384-2.22c1.409-1.419,2.22-3.376,2.22-5.384C435.459,261.614,434.649,259.657,433.238,258.238z"/> </g> </g> <g> <g> <path d="M324.445,311.764c-1.419-1.419-3.377-2.231-5.384-2.231c-1.998,0-3.955,0.811-5.374,2.231 c-1.419,1.409-2.231,3.376-2.231,5.373c0,2.008,0.811,3.964,2.231,5.384c1.419,1.409,3.375,2.22,5.374,2.22 c2.006,0,3.964-0.812,5.384-2.22c1.409-1.419,2.22-3.376,2.22-5.384C326.665,315.14,325.855,313.183,324.445,311.764z"/> </g> </g> <g> <g> <path d="M88.319,376.838c-1.419-1.419-3.377-2.231-5.384-2.231c-1.998,0-3.955,0.811-5.374,2.231 c-1.419,1.409-2.231,3.376-2.231,5.374c0,2.008,0.811,3.964,2.231,5.384c1.419,1.409,3.375,2.22,5.374,2.22 c2.006,0,3.964-0.811,5.384-2.22c1.409-1.419,2.22-3.376,2.22-5.384C90.539,380.215,89.729,378.258,88.319,376.838z"/> </g> </g> <g> <g> <path d="M131.498,344.471c-1.419-1.419-3.377-2.231-5.384-2.231c-1.998,0-3.955,0.811-5.374,2.231 c-1.419,1.409-2.23,3.376-2.23,5.373c0,2.008,0.811,3.964,2.23,5.384c1.419,1.409,3.375,2.22,5.374,2.22 c2.008,0,3.964-0.811,5.384-2.22c1.409-1.419,2.22-3.376,2.22-5.384C133.719,347.847,132.909,345.89,131.498,344.471z"/> </g> </g> <g> <g> <path d="M267.938,301.929c-13.117,0-23.789,10.671-23.789,23.788c0,13.117,10.671,23.789,23.789,23.789 c13.117,0,23.788-10.672,23.788-23.789C291.726,312.6,281.055,301.929,267.938,301.929z M267.938,334.297 c-4.731,0-8.58-3.85-8.58-8.58c0-4.731,3.85-8.579,8.58-8.579s8.579,3.849,8.579,8.579 C276.518,330.448,272.669,334.297,267.938,334.297z"/> </g> </g> <g> <g> <path d="M319.06,342.24c-13.116,0-23.787,10.671-23.787,23.788c0,13.117,10.671,23.789,23.787,23.789 c13.117,0,23.789-10.671,23.789-23.789C342.848,352.911,332.177,342.24,319.06,342.24z M319.06,374.608 c-4.731,0-8.579-3.85-8.579-8.58c0-4.731,3.849-8.579,8.579-8.579s8.58,3.849,8.58,8.579 C327.64,370.758,323.791,374.608,319.06,374.608z"/> </g> </g> <g> <g> <path d="M263.515,135.73l-16.919-29.304c-2.1-3.638-6.752-4.882-10.387-2.783c-3.637,2.1-4.883,6.75-2.783,10.387l16.919,29.304 c1.409,2.439,5.655,5.302,10.387,2.783C264.438,144.144,265.615,139.367,263.515,135.73z"/> </g> </g> <g> <g> <path d="M275.238,156.035l-1.43-2.476c-2.101-3.638-6.751-4.882-10.387-2.783c-3.637,2.1-4.883,6.75-2.783,10.387l1.43,2.476 c1.409,2.44,5.87,5.274,10.387,2.783C276.132,164.394,277.338,159.672,275.238,156.035z"/> </g> </g> </g>
</svg>