<!DOCTYPE svg PUBLIC "-//W3C//DTD SVG 1.1//EN" "http://www.w3.org/Graphics/SVG/1.1/DTD/svg11.dtd">
<!-- Uploaded to: SVG Repo, www.svgrepo.com, Transformed by: SVG Repo Mixer Tools -->
<svg height="800px" width="800px" version="1.1" id="_x32_" xmlns="http://www.w3.org/2000/svg" xmlns:xlink="http://www.w3.org/1999/xlink" viewBox="0 0 512 512" xml:space="preserve" fill="#000000">
<g id="SVGRepo_bgCarrier" stroke-width="0"/>
<g id="SVGRepo_tracerCarrier" stroke-linecap="round" stroke-linejoin="round"/>
<g id="SVGRepo_iconCarrier"> <style type="text/css"> .st0{fill:#ffffff;} </style> <g> <path class="st0" d="M335.809,396.062c-8.578-15.013-14.048-57.457,1.467-100.87c3.114-8.728,6.604-19.142,8.886-30.189 c4.588-22.289,3.338-42.619-4.045-65.916c-4.454-14.084-11.156-29.049-20.494-45.759c-11.953-21.382-25.246-84.177-21.141-91.952 c4.781-6.376,2.916-15.6-0.025-23.804c5.342-3.84,8.609-10.039,8.609-16.831C309.066,9.302,299.757,0,288.317,0h-64.63 c-11.44,0-20.742,9.302-20.742,20.742c0,6.792,3.26,12.991,8.602,16.831c-2.94,8.204-4.817,17.416-0.096,23.694 c4.184,7.89-9.103,70.686-21.062,92.062c-9.339,16.704-16.046,31.669-20.501,45.753c-7.383,23.296-8.633,43.628-4.038,65.922 c2.275,11.059,5.77,21.472,8.892,30.196c15.502,43.41,10.033,85.85,1.454,100.862c-8.518,14.905-29.502,77.41,2.681,98.455 C202.583,510.014,227.557,512,246.67,512l9.338-0.061l9.339,0.061c19.106,0,44.074-1.986,67.781-17.482 C365.299,473.478,344.327,410.967,335.809,396.062z M229.398,50.654c0.163-1.02,0.706-3.338,2.536-8.077h48.138 c1.871,4.847,2.402,7.141,2.566,8.029c-3.87,6.35-6.146,18.774,1.92,55.327c1.17,5.312,2.534,10.885,4.014,16.396h-65.137 c1.478-5.511,2.843-11.084,4.014-16.39C235.496,69.478,233.25,57.023,229.398,50.654z"/> </g> </g>
</svg>